<?xml version="1.0" standalone="no"?>
<!DOCTYPE svg PUBLIC "-//W3C//DTD SVG 20010904//EN"
 "http://www.w3.org/TR/2001/REC-SVG-20010904/DTD/svg10.dtd">
<svg version="1.0" xmlns="http://www.w3.org/2000/svg"
 width="1280.000000pt" height="1280.000000pt" viewBox="0 0 1280.000000 1280.000000"
 preserveAspectRatio="xMidYMid meet">
<metadata>
Created by potrace 1.14, written by Peter Selinger 2001-2017
</metadata>
<g transform="translate(0.000000,1280.000000) scale(0.100000,-0.100000)"
fill="#000000" stroke="none">
<path d="M0 7330 l0 -5470 65 0 c50 0 69 4 84 19 10 10 35 24 55 31 20 6 36
17 36 24 0 7 18 19 40 26 23 8 56 31 76 52 19 21 39 36 44 33 6 -3 21 5 34 19
13 14 28 26 34 26 7 0 19 11 28 25 9 14 22 25 29 25 7 0 15 3 17 8 2 4 28 27
58 52 30 25 57 48 58 53 2 4 12 7 22 7 10 0 22 9 25 20 3 11 10 20 14 20 6 0
35 24 101 83 8 8 23 24 33 36 10 12 21 19 26 17 5 -3 11 3 14 14 3 12 14 20
26 20 12 0 21 6 21 15 0 8 4 15 9 15 8 0 25 15 119 101 23 21 47 39 52 39 5 0
27 16 47 35 20 19 41 35 46 35 5 0 18 11 29 25 11 14 25 25 32 25 7 0 29 16
49 35 21 20 37 33 37 30 0 -4 15 5 33 20 17 14 42 34 54 43 13 9 34 27 48 39
13 12 33 24 44 28 10 3 22 12 25 20 3 8 12 15 21 15 12 0 15 -16 16 -87 0 -77
15 -198 18 -150 0 9 8 17 16 17 8 0 15 4 15 10 0 5 6 7 14 4 8 -3 17 0 22 7 5
8 3 10 -7 4 -8 -5 1 7 19 25 17 19 32 37 32 41 0 9 8 18 132 155 46 49 97 101
114 114 17 14 29 30 27 37 -3 7 2 13 12 13 9 0 13 4 10 10 -3 5 1 10 9 10 9 0
16 4 16 8 0 21 158 176 228 223 63 43 184 132 227 167 10 8 87 54 183 110 32
17 104 55 162 83 68 33 118 65 142 91 21 22 41 37 46 34 4 -3 14 16 20 41 11
39 33 66 150 182 75 75 146 148 157 161 48 60 105 154 130 217 75 181 147 338
188 408 55 94 120 186 174 245 17 19 59 69 94 110 34 41 65 77 69 80 3 3 35
52 70 110 91 150 179 234 306 296 55 26 117 60 139 75 28 20 80 37 175 59 303
70 315 73 315 95 0 14 6 20 22 19 l22 -1 -5 181 c-4 163 -20 365 -30 375 -2 2
-22 -4 -46 -14 -50 -20 -107 -14 -155 15 -63 38 -147 193 -227 420 -21 58 -44
119 -52 137 -8 17 -14 57 -14 90 0 67 -12 95 -32 75 -9 -9 -9 -12 0 -12 8 0
12 -19 11 -57 -1 -32 -4 -47 -6 -33 -2 14 -7 32 -10 40 -8 19 -10 27 -12 41 0
6 -7 9 -13 6 -7 -2 -23 0 -35 4 -15 5 -23 5 -23 -2 0 -21 -30 -39 -75 -46 -26
-3 -52 -11 -58 -17 -7 -7 -39 -20 -72 -29 -81 -24 -164 -66 -214 -109 -30 -26
-143 -6 -164 28 -4 8 -12 14 -17 14 -6 0 -22 13 -37 29 -16 15 -39 32 -52 36
-15 5 -19 10 -12 14 6 4 9 15 5 24 -5 13 1 19 24 23 17 4 39 15 48 25 9 11 23
19 31 19 7 0 13 4 13 8 0 5 30 19 68 32 37 13 70 28 74 34 3 5 15 10 25 11 10
1 46 10 81 19 34 9 108 18 163 21 67 3 107 9 118 18 9 8 27 23 40 33 13 10 75
69 138 130 105 102 116 115 124 159 12 62 -5 119 -43 146 -15 11 -28 17 -28
12 0 -4 -5 0 -11 10 -5 9 -17 17 -25 17 -25 0 -87 37 -118 70 -27 29 -28 33
-20 86 9 54 11 57 49 70 33 12 47 12 80 2 22 -7 44 -18 48 -25 4 -7 15 -13 22
-13 8 0 15 -4 15 -8 0 -13 74 -34 78 -22 2 6 13 10 25 10 26 1 57 22 57 39 0
7 4 10 8 7 4 -2 8 3 9 12 1 9 7 37 13 62 6 25 13 54 14 66 1 11 5 24 8 30 3 5
13 51 23 101 9 51 21 90 26 87 5 -3 6 1 3 9 -5 15 32 87 46 87 8 0 57 73 88
130 7 14 23 36 36 50 12 14 28 37 36 53 7 15 17 27 22 27 4 0 8 10 8 23 0 13
23 45 56 80 45 46 59 55 70 46 8 -6 15 -9 15 -5 1 3 3 11 4 16 1 6 3 17 4 25
0 8 7 12 16 9 10 -4 15 0 15 11 0 13 5 15 18 10 37 -17 71 -16 96 0 28 19 35
45 12 45 -10 0 -12 7 -8 22 4 18 2 20 -19 15 -23 -6 -23 -5 -5 8 11 8 29 15
41 15 22 0 65 38 65 57 0 19 26 22 74 6 53 -18 58 -30 17 -44 -27 -9 -48 -36
-37 -46 2 -3 19 3 36 12 18 9 41 15 51 12 11 -3 19 -1 19 3 0 9 40 1 56 -11
11 -9 87 -5 104 6 20 13 29 -6 15 -32 -16 -31 -7 -47 28 -49 31 -2 119 -14
137 -19 8 -2 35 -6 60 -9 25 -3 69 -14 99 -25 30 -11 57 -18 61 -16 5 3 10 -1
13 -9 3 -7 25 -23 49 -36 23 -12 45 -25 48 -29 3 -4 16 -12 30 -18 23 -11 22
-12 -20 -13 l-45 -2 43 -15 c35 -12 42 -19 42 -41 -1 -25 -2 -25 -14 -9 -14
18 -36 23 -36 8 0 -4 8 -19 18 -32 11 -13 21 -35 25 -48 7 -28 -11 -71 -29
-71 -22 0 -88 -71 -74 -80 9 -5 9 -9 1 -14 -18 -11 -13 -44 10 -59 l21 -15
-23 -7 -23 -8 22 -18 22 -18 -22 -15 c-19 -13 -19 -16 -5 -22 21 -8 22 -40 1
-48 -14 -5 -14 -8 2 -23 12 -13 19 -14 22 -5 2 6 8 12 13 12 5 0 4 -8 -2 -19
-13 -20 -10 -29 21 -76 11 -16 23 -38 26 -47 3 -10 15 -20 25 -23 20 -7 24
-17 12 -28 -3 -4 -12 2 -20 13 -8 11 -23 20 -34 20 -16 0 -19 7 -19 40 0 33
-3 40 -20 40 -11 0 -20 -7 -20 -15 0 -8 -9 -15 -20 -15 -11 0 -20 -4 -20 -9 0
-17 19 -22 39 -12 16 9 18 8 14 -9 -3 -13 0 -20 9 -20 16 0 65 -86 55 -96 -4
-4 -7 -2 -7 4 0 7 -5 12 -11 12 -7 0 -20 9 -30 21 -10 12 -23 18 -30 13 -9 -5
-8 -10 3 -18 22 -17 40 -56 34 -73 -4 -10 2 -21 14 -30 11 -8 18 -19 14 -24
-6 -11 -37 16 -45 38 -3 8 -13 8 -34 -2 l-30 -13 33 -12 c17 -7 32 -15 32 -20
0 -14 -29 -32 -40 -25 -6 4 -17 2 -24 -4 -7 -6 -20 -10 -27 -8 -8 2 -11 2 -6
0 11 -7 9 -31 -3 -38 -6 -4 -16 -3 -23 2 -7 5 -27 9 -45 7 -25 -1 -32 2 -28
12 7 19 -3 18 -42 -6 -18 -11 -39 -20 -47 -20 -8 0 -19 -8 -24 -17 -9 -16 -10
-16 -11 -1 0 15 -2 15 -32 0 -18 -9 -41 -17 -50 -19 -9 -1 -56 -10 -104 -18
-47 -8 -90 -13 -94 -10 -4 3 -13 -1 -19 -9 -8 -9 -26 -12 -62 -8 -45 4 -53 2
-80 -24 -16 -15 -29 -31 -29 -35 0 -13 -50 -59 -64 -59 -10 0 -13 -11 -11 -37
4 -39 15 -50 58 -60 38 -8 15 -22 -38 -24 -38 -1 -39 -1 -13 -10 17 -7 33 -7
44 -1 10 6 30 6 46 2 20 -6 32 -4 42 6 13 12 17 11 33 -10 11 -13 35 -34 54
-45 19 -12 27 -21 18 -21 -9 0 -21 -11 -27 -25 -6 -14 -19 -25 -27 -25 -31 0
-178 -63 -206 -89 -25 -22 -28 -30 -21 -56 9 -30 9 -30 80 -30 53 0 76 -4 92
-17 11 -10 23 -18 26 -18 3 0 19 -13 36 -30 16 -16 36 -30 44 -30 10 0 13 -7
9 -22 -4 -18 1 -26 27 -39 21 -10 36 -27 42 -45 4 -16 17 -47 27 -69 11 -22
20 -62 22 -89 3 -60 11 -63 119 -36 97 25 108 25 101 0 -4 -15 0 -20 16 -20
17 0 21 6 21 35 0 19 5 35 10 35 6 0 10 -7 10 -15 0 -8 5 -15 10 -15 6 0 10 8
10 19 0 10 12 24 29 32 48 24 129 127 147 189 17 59 25 120 17 134 -3 4 -7 31
-9 59 -3 28 -11 58 -19 67 -8 9 -18 32 -21 51 -6 28 -4 32 7 22 20 -20 57 -16
64 7 3 11 22 27 41 36 18 9 32 20 29 24 -3 5 0 12 6 15 5 4 8 13 5 20 -2 7 2
16 10 19 8 3 14 17 14 31 0 28 12 32 33 11 10 -11 17 -12 25 -4 8 8 13 8 16
-3 2 -8 9 -27 14 -44 6 -21 15 -29 28 -28 10 1 22 -4 26 -10 8 -14 -10 -39
-23 -31 -5 3 -9 1 -9 -5 0 -5 6 -11 13 -14 9 -3 7 -9 -5 -24 -13 -14 -18 -36
-18 -75 0 -30 3 -57 6 -61 9 -9 14 -76 17 -227 2 -74 6 -141 11 -148 15 -25
37 -316 30 -402 -5 -47 -7 -89 -5 -94 1 -5 -3 -22 -9 -37 -8 -18 -8 -33 -3
-44 26 -46 -32 -205 -78 -215 -32 -7 -99 -42 -100 -52 -3 -19 -5 -24 -23 -50
-10 -15 -23 -24 -31 -22 -11 5 -13 -8 -11 -58 4 -73 3 -74 -103 -98 -58 -14
-194 -8 -214 8 -7 5 -28 13 -47 16 -19 4 -56 12 -82 18 -41 10 -50 9 -66 -5
-10 -9 -22 -17 -25 -17 -12 0 -7 28 6 33 9 3 6 16 -10 48 l-23 44 0 -37 c0
-40 -8 -46 -28 -26 -25 25 -19 -181 7 -226 9 -16 20 -37 26 -47 12 -23 80 -26
108 -4 11 7 25 11 33 8 8 -3 14 0 14 6 0 15 27 14 37 -1 4 -7 19 -19 32 -27
21 -12 26 -11 36 3 7 8 16 12 20 8 4 -4 2 4 -5 16 -10 21 -9 27 10 44 l21 19
-6 -28 c-6 -25 -5 -26 8 -10 14 17 43 23 49 10 4 -10 76 -57 99 -65 9 -4 21
-20 27 -38 9 -25 9 -32 -3 -35 -8 -3 -22 -7 -30 -10 -8 -2 -15 -16 -15 -31 0
-26 -1 -26 -19 -10 -18 17 -19 16 -26 -13 -4 -21 -13 -31 -25 -31 -10 0 -22
-5 -26 -11 -8 -14 -55 -2 -70 19 -7 9 -16 13 -21 9 -4 -5 -1 -14 7 -20 8 -7
21 -20 29 -29 12 -17 11 -17 -17 -12 -31 6 -31 6 -23 -23 15 -51 40 -90 61
-96 12 -3 20 -13 20 -27 0 -29 44 -70 75 -70 28 0 31 -7 10 -34 -12 -16 -12
-21 8 -36 18 -15 22 -28 21 -72 0 -29 3 -56 8 -59 5 -3 -7 -14 -26 -23 -20 -9
-36 -23 -36 -31 0 -17 -27 -20 -32 -4 -2 6 -14 8 -30 4 -21 -5 -25 -10 -15
-19 26 -25 221 -75 269 -69 13 2 17 -4 15 -27 -2 -35 -5 -36 -23 -12 -11 13
-13 14 -9 1 3 -9 -1 -22 -10 -29 -12 -10 -15 -10 -15 1 -1 10 -4 9 -14 -3 -17
-23 -26 -23 -26 1 0 16 -18 31 -37 31 -3 0 -3 -15 1 -32 5 -33 5 -33 -8 -8 -8
14 -12 28 -10 32 3 5 -2 8 -10 8 -9 0 -16 -4 -16 -10 0 -5 -7 -10 -17 -10 -9
0 -13 3 -10 6 3 4 2 15 -4 26 -8 15 -13 17 -25 7 -10 -8 -14 -8 -14 0 0 15
-33 14 -48 -1 -9 -9 -12 -9 -12 0 0 7 -14 12 -34 12 -19 0 -38 5 -42 11 -3 6
-16 8 -29 5 -14 -4 -27 0 -35 9 -6 7 -18 11 -25 9 -7 -3 -19 4 -25 16 -7 13
-17 19 -26 16 -8 -3 -14 0 -13 7 3 25 -1 38 -11 32 -6 -4 -9 -14 -8 -23 4 -22
-28 -27 -48 -8 -8 9 -25 15 -37 15 -22 -2 -22 -2 1 -6 39 -8 24 -25 -20 -22
-49 2 -100 -9 -93 -21 3 -4 -2 -11 -10 -14 -11 -4 -19 3 -25 20 -10 25 -34 29
-36 6 -3 -25 -5 -27 -13 -13 -14 22 -167 18 -192 -5 -15 -13 -34 -17 -84 -15
-41 1 -65 -2 -65 -9 0 -12 -49 -3 -65 11 -5 5 -20 9 -32 9 -13 0 -38 7 -55 16
-19 10 -42 14 -62 10 -17 -4 -37 -7 -44 -8 -7 -1 -11 -7 -8 -14 3 -8 1 -16 -3
-19 -24 -14 -28 88 -7 139 19 45 3 72 -22 37 -22 -32 -25 -47 -25 -106 0 -39
7 -62 33 -105 46 -74 99 -146 149 -199 22 -24 41 -46 41 -48 0 -2 56 -70 124
-151 114 -136 285 -307 365 -366 18 -14 54 -44 80 -68 113 -105 365 -278 405
-278 7 0 21 -9 32 -21 10 -11 26 -18 36 -16 10 3 18 2 18 -2 0 -9 121 -31 174
-31 24 0 72 7 107 16 40 10 91 15 142 12 l80 -3 13 50 c21 75 25 102 28 195 2
91 20 200 38 234 6 11 11 34 10 50 0 17 4 36 10 43 6 7 8 22 5 34 -4 14 1 23
18 31 20 9 22 13 12 30 -9 13 -9 21 -1 26 6 4 11 14 12 22 1 8 4 38 7 65 4 36
3 46 -4 35 -9 -12 -11 -9 -11 13 0 15 -9 36 -20 47 -27 27 -25 32 10 26 21 -3
30 0 30 9 0 7 -5 15 -12 17 -10 4 -9 14 0 46 7 23 17 42 23 42 6 0 7 14 4 34
-4 20 0 52 9 81 9 26 16 66 16 89 -2 48 4 81 21 133 6 20 12 50 11 65 0 15 4
28 9 28 5 0 9 6 9 14 0 7 14 40 32 72 17 32 37 69 44 82 6 13 19 28 27 35 9 7
30 39 46 72 17 33 46 78 64 100 28 32 37 37 49 27 8 -6 17 -10 20 -7 2 3 101
12 219 20 119 9 254 25 304 36 110 25 271 34 345 21 30 -6 93 -18 140 -26 107
-20 232 -80 306 -147 30 -27 60 -49 68 -49 37 0 382 -244 536 -379 274 -240
465 -510 634 -895 39 -88 78 -170 86 -181 18 -24 156 -147 220 -195 25 -19 47
-37 50 -40 14 -16 161 -118 280 -195 378 -245 547 -371 693 -517 l118 -117 -2
-426 c-1 -234 1 -429 5 -432 3 -4 6 195 6 440 0 246 4 447 8 447 5 0 17 -9 26
-19 10 -11 31 -23 47 -26 16 -4 34 -15 39 -26 6 -10 17 -19 25 -19 8 0 26 -11
41 -25 15 -14 33 -25 40 -25 8 0 14 -4 14 -9 0 -5 8 -12 18 -15 24 -9 59 -30
80 -49 10 -10 22 -17 26 -17 4 0 26 -13 49 -29 23 -15 52 -31 64 -35 11 -4 24
-13 27 -21 3 -8 22 -23 43 -34 21 -11 55 -36 77 -56 21 -19 47 -35 58 -35 11
0 22 -8 25 -20 3 -11 8 -18 12 -16 4 3 35 -22 70 -55 35 -32 69 -59 76 -59 7
0 20 -11 29 -25 9 -14 21 -25 26 -25 5 0 53 -43 107 -95 54 -52 103 -95 110
-95 6 0 29 -16 50 -35 21 -20 47 -44 58 -54 11 -10 34 -26 50 -34 17 -9 43
-27 59 -42 16 -14 47 -30 68 -37 22 -6 45 -19 51 -28 9 -12 25 -15 70 -12 l57
4 0 5439 0 5439 -804 0 -804 0 -4 -94 c-3 -68 -8 -98 -20 -109 -8 -9 -18 -13
-22 -10 -3 4 -6 1 -6 -6 0 -7 -4 -10 -9 -7 -11 7 -478 -225 -554 -276 -32 -21
-60 -38 -62 -38 -3 0 -38 -21 -78 -47 -41 -27 -87 -56 -103 -65 -33 -20 -46
-28 -124 -79 -74 -47 -180 -108 -249 -142 -31 -15 -63 -32 -71 -37 -8 -5 -34
-19 -58 -31 -23 -12 -47 -30 -53 -41 -5 -10 -14 -16 -20 -13 -5 4 -9 -1 -9 -9
0 -9 -11 -18 -25 -22 -14 -3 -31 -14 -38 -23 -21 -28 -64 -62 -80 -65 -8 -1
-28 -15 -45 -31 -16 -17 -68 -67 -116 -113 -47 -46 -93 -96 -101 -111 -8 -16
-21 -31 -30 -34 -8 -4 -15 -13 -15 -22 0 -8 -4 -15 -9 -15 -5 0 -11 -8 -15
-17 -8 -25 -29 -57 -42 -65 -7 -4 -15 -19 -18 -33 -4 -14 -13 -25 -21 -25 -8
0 -22 -12 -31 -26 -10 -14 -35 -32 -56 -41 -24 -10 -38 -22 -38 -33 0 -10 -16
-27 -35 -39 -19 -11 -35 -25 -35 -31 0 -5 -9 -10 -20 -10 -11 0 -20 -4 -20 -9
0 -15 -121 -35 -210 -36 -82 0 -150 16 -150 36 0 5 -22 23 -50 40 -27 17 -50
35 -50 39 0 5 -19 14 -42 20 -24 6 -70 19 -103 30 -33 11 -85 22 -115 26 -30
3 -63 10 -73 16 -59 31 -1409 47 -1692 20 -113 -11 -310 -15 -400 -8 -85 7
-587 6 -960 -2 -623 -13 -1339 -3 -1603 24 -85 8 -991 -15 -1202 -31 -282 -21
-547 -29 -597 -17 -24 5 -43 6 -43 2 0 -10 -40 -4 -51 7 -11 12 -21 476 -12
573 l8 85 350 0 c193 0 568 -6 835 -13 570 -15 1834 -34 2515 -38 264 -2 604
-8 755 -14 151 -6 559 -10 905 -9 367 1 701 -3 800 -10 329 -21 878 -7 985 25
64 19 197 84 293 142 37 23 69 42 71 42 2 0 34 18 70 40 36 22 68 40 70 40 3
0 41 23 86 50 45 28 88 50 95 50 7 0 15 3 17 8 3 7 416 258 478 290 14 7 32
20 41 28 8 8 18 14 21 14 6 0 132 80 153 97 6 4 44 30 85 57 99 65 160 115
160 132 0 12 -786 14 -5200 14 l-5200 0 0 -5470z m6725 2437 c17 -5 39 -14 50
-19 11 -5 54 -17 95 -27 66 -16 130 -37 195 -62 11 -4 33 -10 48 -14 44 -9
104 -51 110 -77 5 -16 23 -30 60 -47 50 -22 53 -25 38 -40 -13 -14 -18 -14
-24 -4 -15 24 -27 13 -20 -19 6 -32 6 -32 -18 -17 -13 9 -49 22 -79 29 -30 7
-59 16 -65 19 -5 4 -31 8 -57 9 -37 2 -52 -2 -68 -18 l-21 -21 -6 20 c-3 11
-9 18 -15 15 -17 -11 -38 17 -28 36 6 10 10 28 10 39 0 12 5 21 11 21 5 0 7 5
4 10 -13 21 -35 10 -36 -17 -1 -26 -1 -26 -7 -5 l-7 23 -17 -21 c-19 -21 -48
-27 -48 -10 0 6 -4 10 -10 10 -5 0 -7 -7 -3 -16 4 -12 0 -15 -18 -12 -18 2
-25 10 -27 31 -5 38 -26 29 -32 -14 -5 -31 -6 -32 -17 -14 -9 16 -14 17 -27 6
-18 -15 -37 -6 -30 13 4 10 -7 16 -35 21 -25 4 -41 12 -41 21 0 8 7 14 15 14
8 0 15 5 15 11 0 7 11 9 27 6 34 -6 53 1 53 20 0 10 -7 14 -20 10 -10 -3 -24
1 -31 9 -6 8 -16 11 -23 7 -6 -4 -19 -6 -28 -5 -10 2 -28 -4 -40 -12 -12 -9
-30 -16 -39 -16 -20 0 -117 -28 -141 -41 -10 -5 -27 -9 -38 -9 -20 0 -20 1 -4
25 16 24 15 25 -4 25 -11 0 -25 -7 -32 -15 -7 -8 -18 -15 -24 -15 -16 0 -106
-85 -106 -101 0 -7 -3 -9 -7 -6 -3 4 -12 -2 -20 -13 -19 -27 -33 -25 -33 5 0
22 -3 24 -32 19 -18 -3 -45 -18 -59 -33 -14 -15 -33 -30 -42 -34 -10 -4 -17
-10 -16 -14 4 -25 -3 -35 -21 -30 -11 3 -23 1 -26 -4 -3 -5 -12 -9 -20 -9 -12
0 -12 5 2 32 l17 32 -27 -17 c-15 -10 -31 -15 -36 -12 -5 3 -11 1 -15 -5 -3
-5 -15 -10 -26 -10 -10 0 -19 -6 -19 -13 0 -14 -100 -41 -112 -29 -4 4 2 28
14 52 55 115 191 205 341 225 56 7 82 20 121 59 19 20 30 25 35 17 4 -6 15 -9
23 -6 8 3 71 7 139 8 68 1 144 7 169 14 71 19 144 31 160 25 8 -2 29 -9 45
-15z m-2685 -277 c13 -9 13 -11 0 -20 -14 -9 -62 -13 -175 -15 -27 -1 -62 -5
-76 -9 -14 -4 -45 -6 -70 -4 l-44 3 55 17 c107 32 279 48 310 28z m3290 -71
c0 -14 -17 -10 -23 5 -4 10 -1 13 9 9 7 -3 14 -9 14 -14z m-3 -21 c18 -7 33
-16 33 -20 0 -15 1 -17 15 -45 8 -15 13 -29 10 -31 -8 -8 -45 10 -45 23 0 7
-13 27 -30 43 -44 45 -41 51 17 30z m-4137 -132 c0 -7 -7 -19 -16 -27 -13 -10
-17 -10 -25 2 -15 25 -10 39 16 39 15 0 25 -6 25 -14z m2790 4 c0 -12 -62 -52
-69 -44 -6 5 49 53 62 54 4 0 7 -5 7 -10z m-243 -66 c-3 -3 -12 -4 -19 -1 -8
3 -5 6 6 6 11 1 17 -2 13 -5z m-3369 -47 c3 -16 -2 -18 -40 -15 -32 2 -44 8
-46 21 -3 16 2 18 40 15 32 -2 44 -8 46 -21z m5082 -26 c0 -6 -4 -13 -10 -16
-5 -3 -10 1 -10 9 0 9 5 16 10 16 6 0 10 -4 10 -9z m25 -51 c8 -13 -5 -13 -25
0 -13 8 -13 10 2 10 9 0 20 -4 23 -10z m-30 -44 c18 -13 18 -17 5 -40 -16 -32
-34 -20 -36 24 -2 34 4 36 31 16z m-261 -147 c6 -4 27 -22 47 -39 46 -38 54
-38 34 0 -20 39 -12 38 41 -5 23 -19 46 -35 51 -35 13 -1 56 -50 98 -110 21
-30 50 -71 65 -90 15 -19 35 -53 44 -75 29 -68 65 -229 77 -337 11 -103 9
-552 -3 -564 -8 -8 -59 26 -78 51 -29 40 -75 75 -107 81 -18 3 -53 20 -78 36
-34 22 -46 38 -51 64 -7 39 -39 84 -59 84 -7 0 -27 21 -44 48 -17 26 -36 55
-43 64 -10 14 -10 22 0 38 11 17 10 23 -4 37 -13 14 -14 18 -3 22 9 4 15 24
16 51 1 25 7 46 13 48 15 5 12 28 -5 42 -11 9 -12 16 -4 26 6 7 8 22 4 33 -5
16 -1 20 26 23 43 4 48 24 10 33 -17 4 -31 13 -31 20 0 8 -17 19 -39 25 -21 5
-50 21 -64 34 -15 14 -36 27 -47 31 -11 3 -20 11 -20 16 0 6 5 7 10 4 19 -12
10 13 -10 26 -12 9 -20 28 -23 55 -2 33 -32 92 -57 114 -14 13 -7 60 10 65 10
3 21 12 24 20 3 8 12 15 20 15 7 0 16 7 19 15 4 8 24 23 47 35 22 11 40 25 40
30 0 10 49 -11 74 -31z m-764 -84 c10 -12 10 -15 -4 -15 -9 0 -16 7 -16 15 0
8 2 15 4 15 2 0 9 -7 16 -15z m3226 -75 c16 -5 54 -11 84 -14 54 -4 106 -17
145 -35 11 -5 32 -12 46 -15 32 -7 58 -51 41 -68 -14 -14 -85 -15 -242 -4
-119 9 -203 33 -226 64 -21 26 -17 58 9 70 28 14 105 15 143 2z m-5804 -60
c58 -16 98 -55 98 -95 0 -27 -5 -35 -34 -49 -19 -9 -38 -16 -44 -16 -5 0 -38
-9 -72 -20 -34 -11 -82 -20 -107 -20 -93 0 -184 98 -145 156 6 10 76 36 127
47 39 9 140 7 177 -3z m2544 -197 c18 -24 17 -50 -2 -57 -8 -3 -12 -10 -9 -16
3 -5 1 -10 -4 -10 -6 0 -11 12 -11 28 0 15 -3 37 -6 50 -8 27 13 30 32 5z
m-55 -40 c-9 -16 -10 -14 -11 12 0 21 3 26 11 18 8 -8 8 -16 0 -30z m72 -118
c-3 -9 -8 -14 -10 -11 -3 3 -2 9 2 15 9 16 15 13 8 -4z m17 -45 c0 -5 -4 -10
-10 -10 -5 0 -10 5 -10 10 0 6 5 10 10 10 6 0 10 -4 10 -10z m15 -300 c-3 -5
-13 -10 -21 -10 -8 0 -14 -9 -14 -20 0 -11 7 -20 15 -20 8 0 15 -9 15 -19 0
-14 -6 -19 -20 -18 -13 1 -20 8 -20 22 0 12 -6 27 -12 34 -11 10 -9 15 6 27
22 16 60 19 51 4z m32 -52 c-3 -12 -2 -29 3 -39 7 -12 5 -20 -4 -28 -11 -10
-15 -3 -18 34 -3 48 -1 55 15 55 5 0 7 -10 4 -22z m-37 -73 c0 -9 -6 -12 -15
-9 -8 4 -12 10 -9 15 8 14 24 10 24 -6z m61 -19 c5 3 9 0 9 -6 0 -7 -9 -14
-21 -17 -14 -4 -19 -12 -16 -24 3 -11 1 -22 -5 -25 -12 -8 -14 -5 -22 31 -5
25 -3 32 16 40 13 6 25 7 26 3 2 -5 8 -6 13 -2z m49 -51 c0 -8 -4 -15 -10 -15
-5 0 -10 7 -10 15 0 8 5 15 10 15 6 0 10 -7 10 -15z m-63 -47 c-3 -8 -6 -5 -6
6 -1 11 2 17 5 13 3 -3 4 -12 1 -19z m103 -15 c0 -5 -5 -15 -10 -23 -8 -12
-10 -11 -10 8 0 12 5 22 10 22 6 0 10 -3 10 -7z m-4162 -18 c120 -28 296 -93
255 -95 -7 0 -13 -7 -13 -15 0 -23 -36 -41 -150 -75 -164 -49 -169 -50 -269
-50 -86 -1 -99 2 -157 31 -62 30 -64 32 -64 70 0 22 5 39 10 39 6 0 17 18 26
40 9 23 19 38 22 35 3 -3 15 1 27 9 11 7 30 16 40 19 45 11 210 6 273 -8z
m4159 -51 c-3 -4 -14 -3 -24 0 -15 6 -15 8 -3 16 16 10 39 -4 27 -16z m60 -10
c-3 -3 -12 -4 -19 -1 -8 3 -5 6 6 6 11 1 17 -2 13 -5z m-4971 -69 c11 11 38
15 95 15 43 0 79 -4 79 -8 0 -5 18 -15 40 -22 37 -12 54 -30 29 -30 -5 0 -7
-5 -3 -12 6 -9 9 -9 12 0 4 13 32 17 31 5 0 -5 -23 -25 -50 -46 -59 -45 -139
-73 -226 -80 l-63 -5 0 95 c0 80 2 94 15 89 8 -3 16 0 16 7 1 7 3 4 6 -5 4
-16 6 -16 19 -3z m4047 -170 c-4 -27 0 -44 21 -76 l28 -41 -34 7 c-58 13 -108
52 -108 86 0 19 55 59 82 59 14 0 16 -7 11 -35z m57 5 c0 -5 -4 -10 -10 -10
-5 0 -10 5 -10 10 0 6 5 10 10 10 6 0 10 -4 10 -10z m1874 -88 c3 -21 15 -47
26 -57 23 -21 27 -70 6 -78 -10 -4 -16 -35 -21 -109 -13 -198 -57 -414 -99
-485 -12 -21 -13 -20 -14 20 -1 51 -7 85 -18 113 -10 24 -76 84 -93 84 -6 0
-11 10 -11 23 0 13 -5 28 -11 34 -14 14 -1 99 17 118 8 7 14 17 14 22 1 13 32
46 75 77 22 17 43 35 48 40 15 22 38 112 43 170 2 32 7 63 10 68 10 15 21 -1
28 -40z m-1457 -1800 c7 -8 11 -18 8 -23 -19 -29 -59 15 -42 46 8 16 11 17 15
5 3 -8 11 -21 19 -28z m50 -244 c-3 -8 -6 -5 -6 6 -1 11 2 17 5 13 3 -3 4 -12
1 -19z m-4607 -573 c6 24 8 19 10 -30 3 -58 3 -58 10 -20 5 28 8 32 9 15 0
-15 6 -31 12 -37 19 -19 21 -99 3 -117 -8 -9 -13 -20 -10 -24 3 -5 -1 -9 -8
-9 -8 0 -12 7 -9 16 2 9 -2 6 -9 -7 -8 -12 -17 -19 -21 -16 -4 4 -6 64 -6 133
1 69 4 113 7 96 l5 -30 7 30z"/>
<path d="M7238 8003 c7 -3 16 -2 19 1 4 3 -2 6 -13 5 -11 0 -14 -3 -6 -6z"/>
<path d="M5555 9130 c-3 -5 -2 -10 4 -10 5 0 13 5 16 10 3 6 2 10 -4 10 -5 0
-13 -4 -16 -10z"/>
<path d="M5496 9051 c-12 -19 5 -60 25 -58 23 2 23 0 0 38 -10 17 -22 26 -25
20z"/>
<path d="M4851 8174 c0 -11 3 -14 6 -6 3 7 2 16 -1 19 -3 4 -6 -2 -5 -13z"/>
<path d="M6476 7654 c-5 -12 -2 -15 10 -10 8 3 18 6 20 6 3 0 2 5 -1 10 -9 15
-22 12 -29 -6z"/>
<path d="M4612 7350 c-12 -16 -23 -44 -24 -62 -1 -63 76 -348 94 -348 6 0 7 8
3 18 -5 9 -11 82 -14 162 -4 80 -10 150 -14 157 -5 7 0 20 11 31 26 26 33 59
15 66 -29 11 -48 5 -71 -24z"/>
<path d="M4822 7137 c-12 -13 -22 -33 -22 -45 0 -11 -4 -23 -9 -26 -10 -6 -19
-50 -26 -123 -6 -56 12 -73 76 -73 27 0 49 2 49 5 0 3 -10 19 -21 35 -18 24
-21 36 -15 72 4 24 7 53 7 65 0 12 6 26 15 31 10 6 14 20 12 43 -4 43 -34 50
-66 16z"/>
<path d="M6152 6997 c-6 -7 -8 -18 -4 -24 6 -9 11 -6 20 7 13 22 0 36 -16 17z"/>
<path d="M6000 6890 c0 -12 -6 -17 -17 -16 -10 2 -25 -7 -35 -18 -14 -17 -19
-18 -27 -7 -6 9 -11 10 -15 2 -4 -6 -2 -11 3 -11 23 0 10 -22 -19 -33 -23 -9
-30 -18 -30 -38 0 -29 40 -96 55 -91 6 2 13 -7 16 -20 4 -18 11 -22 34 -20 15
2 32 -3 36 -10 6 -9 11 -10 19 -2 8 8 7 16 -4 27 -18 17 -21 37 -7 37 5 0 11
-7 15 -15 3 -8 10 -15 15 -15 16 0 20 29 6 44 -17 17 -20 62 -5 71 15 9 12 36
-6 49 -11 9 -13 17 -5 36 7 19 10 21 10 7 1 -12 7 -17 18 -15 20 4 30 28 11
28 -7 0 -25 7 -40 14 -26 14 -28 13 -28 -4z m-80 -100 c-19 -13 -30 -13 -30 0
0 6 10 10 23 10 18 0 19 -2 7 -10z m100 0 c0 -5 -4 -10 -10 -10 -5 0 -10 5
-10 10 0 6 5 10 10 10 6 0 10 -4 10 -10z"/>
<path d="M4710 6841 c0 -5 5 -13 10 -16 6 -3 10 -2 10 4 0 5 -4 13 -10 16 -5
3 -10 2 -10 -4z"/>
<path d="M5905 6621 c-3 -5 -1 -12 5 -16 5 -3 10 1 10 9 0 18 -6 21 -15 7z"/>
<path d="M5985 6480 c-3 -5 -1 -10 4 -10 6 0 11 5 11 10 0 6 -2 10 -4 10 -3 0
-8 -4 -11 -10z"/>
<path d="M6293 6369 c-24 -9 -56 -46 -46 -52 19 -12 126 -26 153 -20 44 8 40
47 -7 72 -23 12 -68 12 -100 0z"/>
<path d="M6082 5730 c0 -19 2 -27 5 -17 2 9 2 25 0 35 -3 9 -5 1 -5 -18z"/>
<path d="M4929 5369 c-67 -8 -149 -32 -149 -43 0 -11 28 -55 32 -51 8 8 93
-33 113 -55 10 -11 24 -20 30 -20 15 0 66 110 68 147 2 32 0 32 -94 22z"/>
<path d="M6921 4908 c-6 -19 -18 -69 -26 -112 -8 -43 -18 -83 -21 -88 -7 -10
-18 -90 -33 -233 -5 -44 -17 -107 -26 -139 -27 -92 -22 -251 9 -285 10 -11 16
-27 13 -35 -3 -8 -1 -16 5 -18 5 -2 13 -23 18 -47 6 -36 5 -46 -11 -59 -11 -9
-19 -22 -19 -30 0 -13 -99 -111 -112 -112 -14 0 -47 -34 -42 -42 3 -4 -3 -8
-12 -8 -25 0 -54 -29 -47 -48 5 -13 0 -14 -31 -9 -33 5 -36 4 -25 -9 10 -13
10 -17 -1 -24 -12 -7 -11 -12 3 -28 9 -10 14 -22 10 -26 -4 -3 -19 7 -34 24
-15 16 -35 30 -43 30 -28 0 4 -50 46 -71 33 -17 44 -18 81 -9 23 7 62 24 87
38 25 15 57 33 72 42 14 8 40 23 57 33 28 16 33 16 46 3 8 -8 19 -16 23 -18 5
-1 12 -14 16 -28 6 -20 5 -22 -4 -10 -9 12 -10 10 -6 -12 4 -15 8 -49 11 -76
3 -27 11 -70 19 -95 8 -26 11 -47 7 -47 -13 0 -6 -55 9 -73 16 -20 154 -117
166 -117 4 0 32 -12 62 -28 l54 -27 27 32 c14 18 46 71 70 118 49 95 49 84 -1
230 -11 33 -29 92 -40 130 -19 67 -132 419 -148 460 -4 11 -19 47 -33 80 -14
33 -33 85 -43 115 -9 30 -23 69 -30 85 -29 71 -79 299 -69 316 3 4 1 27 -4 51
-6 24 -13 77 -16 118 -7 86 -18 106 -34 58z"/>
<path d="M8921 4384 c0 -11 3 -14 6 -6 3 7 2 16 -1 19 -3 4 -6 -2 -5 -13z"/>
<path d="M8934 4318 c15 -49 45 -199 65 -323 22 -133 59 -296 70 -305 3 -3 7
-16 8 -30 11 -130 75 -515 114 -685 5 -22 23 -123 40 -225 17 -102 35 -203 41
-225 6 -22 11 -52 12 -67 0 -15 4 -24 8 -20 4 4 3 45 -2 92 -6 47 -12 111 -14
143 -1 31 -6 60 -9 64 -4 3 -2 13 5 20 9 11 9 16 0 21 -13 9 -14 90 -1 98 5 3
9 11 9 17 0 7 -4 6 -10 -3 -11 -17 -11 -15 -15 53 -1 26 1 49 5 52 3 2 6 29 5
59 -1 31 2 53 6 50 5 -3 9 6 9 20 0 13 -6 27 -12 30 -10 5 -10 7 0 12 14 7 16
31 3 36 -6 2 -6 29 -2 66 4 35 4 65 -1 68 -4 3 -8 18 -8 35 0 41 -37 114 -76
152 -19 17 -34 38 -34 45 0 9 -7 12 -20 9 -13 -3 -20 0 -20 9 0 8 -3 14 -7 14
-5 0 -9 28 -11 62 -2 34 -6 67 -10 73 -7 10 -8 25 -16 164 -3 46 -10 97 -15
115 -6 17 -13 47 -16 66 -3 19 -12 48 -19 65 -11 27 -22 57 -59 163 -13 36
-33 45 -23 10z"/>
<path d="M5080 4245 c0 -8 9 -32 20 -52 11 -21 20 -42 20 -48 0 -6 14 -19 30
-28 17 -10 30 -22 30 -28 0 -5 5 -9 10 -9 18 0 10 25 -17 56 -34 38 -53 69
-53 86 0 7 -9 19 -20 26 -17 10 -20 10 -20 -3z"/>
<path d="M5085 4130 c-8 -13 4 -32 16 -25 12 8 12 35 0 35 -6 0 -13 -4 -16
-10z"/>
<path d="M3040 3880 c0 -5 5 -10 10 -10 6 0 10 5 10 10 0 6 -4 10 -10 10 -5 0
-10 -4 -10 -10z"/>
<path d="M8321 3854 c0 -11 3 -14 6 -6 3 7 2 16 -1 19 -3 4 -6 -2 -5 -13z"/>
<path d="M8340 3793 c1 -18 18 -35 24 -24 4 6 4 16 1 21 -7 12 -25 13 -25 3z"/>
<path d="M8387 3693 c-2 -4 2 -21 9 -38 l13 -30 -3 33 c-3 34 -11 49 -19 35z"/>
<path d="M3690 3565 c0 -8 -4 -15 -10 -15 -5 0 -10 -11 -10 -26 0 -29 32 -46
122 -63 70 -12 108 -31 171 -83 49 -42 61 -76 29 -85 -14 -3 -17 -12 -14 -34
3 -18 -2 -37 -11 -47 -16 -19 -10 -49 16 -71 9 -7 13 -20 10 -29 -4 -14 -3
-15 6 -2 16 23 42 -17 35 -52 -5 -25 -3 -28 20 -28 20 0 24 4 19 18 -4 12 -1
11 14 -5 27 -31 36 -29 31 7 -4 24 -1 30 14 30 12 0 18 -8 19 -22 1 -13 5 -4
11 20 10 46 38 82 63 82 9 0 52 -14 96 -31 l81 -31 28 27 c17 16 26 33 23 42
-5 13 0 14 28 8 l34 -7 -23 22 c-15 14 -29 19 -45 15 -16 -5 -18 -4 -8 3 10 8
3 15 -30 30 -24 12 -71 37 -104 56 -74 43 -247 129 -335 166 -36 15 -90 39
-120 53 -65 30 -151 67 -156 67 -2 0 -4 -7 -4 -15z"/>
<path d="M8440 3510 c0 -5 7 -7 15 -4 8 4 15 8 15 10 0 2 -7 4 -15 4 -8 0 -15
-4 -15 -10z"/>
<path d="M9482 3160 c0 -14 2 -19 5 -12 2 6 2 18 0 25 -3 6 -5 1 -5 -13z"/>
<path d="M4602 3110 c-2 -21 2 -30 13 -30 16 0 19 17 9 44 -10 25 -20 19 -22
-14z"/>
<path d="M4660 3089 c0 -22 4 -30 13 -26 8 3 29 2 48 -3 19 -4 25 -8 14 -9
-17 -1 -17 -3 -5 -11 10 -6 11 -10 3 -10 -7 0 -13 -7 -13 -15 0 -22 13 -18 50
15 18 17 28 30 21 30 -8 0 -11 6 -7 15 6 18 -16 20 -45 5 -11 -7 -19 -7 -19
-1 0 5 5 11 12 13 9 3 9 6 0 12 -7 4 -12 2 -12 -3 0 -17 -30 -13 -36 4 -10 26
-24 16 -24 -16z"/>
<path d="M4435 3100 c-3 -5 -1 -10 4 -10 6 0 11 5 11 10 0 6 -2 10 -4 10 -3 0
-8 -4 -11 -10z"/>
<path d="M9472 3043 c-6 -32 -11 -158 -11 -281 0 -122 -3 -227 -6 -232 -3 -5
-1 -18 4 -28 7 -14 6 -25 -5 -41 -13 -17 -13 -25 -4 -36 10 -12 10 -18 0 -30
-10 -12 -10 -21 0 -44 6 -16 12 -44 13 -63 3 -43 28 -44 39 -1 5 18 12 32 16
32 4 -1 14 -1 22 0 13 1 13 2 0 11 -8 5 -22 7 -32 4 -20 -6 -33 12 -16 22 7 5
22 8 33 9 14 0 20 7 21 25 1 52 4 60 22 60 10 0 23 -5 30 -12 9 -9 15 -9 25 1
10 10 8 15 -6 26 -14 10 -15 14 -5 18 9 4 7 11 -9 25 -28 25 -29 35 -3 27 16
-5 20 -2 20 19 0 15 8 30 20 36 11 6 20 19 20 30 0 10 5 20 11 22 9 3 8 14 -2
41 -18 49 -28 47 -22 -5 3 -32 2 -39 -6 -28 -6 8 -11 50 -11 93 0 55 -4 77
-12 77 -7 0 -22 14 -33 30 -11 16 -23 30 -27 30 -5 0 -8 5 -8 11 0 8 4 9 13 0
19 -15 27 -4 27 35 0 19 -6 34 -15 38 -20 7 -19 32 1 40 22 9 24 8 25 -11 0
-13 2 -14 6 -4 9 21 -37 51 -79 51 -31 0 -38 4 -38 20 0 11 7 20 15 20 8 0 15
5 15 10 0 6 -8 10 -19 10 -15 0 -21 -12 -29 -57z m70 -28 c0 -5 -5 -11 -11
-13 -6 -2 -11 4 -11 13 0 9 5 15 11 13 6 -2 11 -8 11 -13z m28 -64 c0 -15 -18
-23 -25 -11 -4 6 -11 8 -16 5 -5 -4 -9 -1 -9 4 0 6 11 11 25 11 14 0 25 -4 25
-9z"/>
<path d="M4824 3061 c3 -5 18 -11 33 -14 26 -5 26 -4 8 9 -21 15 -49 19 -41 5z"/>
<path d="M4792 3012 c-8 -17 -9 -28 -2 -30 5 -2 10 -10 10 -18 0 -8 5 -14 10
-14 6 0 10 20 10 45 0 51 -9 57 -28 17z"/>
<path d="M4165 3010 c3 -5 8 -10 11 -10 2 0 4 5 4 10 0 6 -5 10 -11 10 -5 0
-7 -4 -4 -10z"/>
<path d="M4858 2990 c-15 -31 -15 -35 0 -46 13 -9 21 -8 39 5 28 20 31 45 4
38 -15 -3 -21 1 -24 17 -3 18 -6 16 -19 -14z"/>
<path d="M5070 2980 c0 -11 7 -20 15 -20 8 0 15 6 15 14 0 8 -7 16 -15 20 -10
4 -15 -1 -15 -14z"/>
<path d="M5130 2981 c10 -7 11 -11 3 -11 -9 0 -13 -16 -13 -45 0 -25 5 -45 10
-45 6 0 10 -7 10 -15 0 -8 4 -15 9 -15 4 0 8 26 7 57 -1 44 3 58 14 60 12 3
15 -8 15 -51 0 -61 7 -75 30 -56 8 7 15 10 15 6 0 -4 11 1 24 9 18 12 24 13
23 3 0 -7 1 -29 3 -48 l2 -35 7 30 c8 37 2 87 -10 79 -15 -9 -51 7 -45 21 7
19 -31 55 -59 55 -13 0 -32 3 -42 6 -15 5 -15 4 -3 -5z"/>
<path d="M5020 2970 c0 -5 5 -10 10 -10 6 0 10 5 10 10 0 6 -4 10 -10 10 -5 0
-10 -4 -10 -10z"/>
<path d="M4956 2905 c4 -9 13 -15 21 -13 23 5 20 23 -4 26 -18 3 -21 0 -17
-13z"/>
<path d="M5033 2895 l-31 -10 26 -13 c18 -8 28 -9 30 -2 2 5 15 10 28 10 14 0
23 4 20 9 -9 15 -40 17 -73 6z"/>
<path d="M5550 2875 c7 -8 16 -12 21 -9 13 8 1 24 -18 24 -13 0 -13 -3 -3 -15z"/>
<path d="M5331 2854 c0 -11 3 -14 6 -6 3 7 2 16 -1 19 -3 4 -6 -2 -5 -13z"/>
<path d="M7686 2848 c-21 -30 -22 -88 0 -88 10 0 15 8 13 23 -1 12 1 35 6 50
10 37 1 44 -19 15z"/>
<path d="M7571 2834 c-25 -21 -29 -29 -19 -36 9 -6 6 -7 -9 -3 -17 5 -22 1
-28 -23 -3 -17 -23 -43 -45 -61 -22 -18 -39 -35 -39 -39 4 -22 -3 -32 -21 -32
-22 0 -36 -37 -27 -70 3 -13 0 -20 -9 -20 -17 0 -34 -39 -40 -94 -3 -22 -6
-44 -7 -50 -1 -6 8 -12 19 -14 14 -2 23 3 26 16 4 13 18 22 42 26 25 5 36 12
35 24 0 9 -3 12 -5 5 -3 -7 -12 -9 -20 -6 -24 9 -15 22 18 25 35 3 55 38 23
38 -9 0 -15 6 -12 13 2 6 15 11 29 9 22 -3 30 5 56 50 16 29 38 76 47 103 10
28 22 55 27 62 14 17 15 95 2 100 -6 2 -26 -8 -43 -23z"/>
<path d="M5226 2843 c-10 -10 -7 -25 4 -18 6 4 17 1 25 -5 10 -8 15 -9 15 -2
0 14 -35 34 -44 25z"/>
<path d="M5596 2807 c-4 -19 -2 -33 4 -35 5 -2 10 -10 10 -18 0 -21 18 -17 25
6 3 11 13 20 21 20 8 0 14 -9 14 -20 0 -11 -7 -20 -15 -20 -8 0 -15 -4 -15
-10 0 -15 19 -12 36 5 17 16 10 60 -14 88 -19 21 -36 22 -28 2 7 -19 -3 -47
-15 -39 -6 3 -7 14 -4 24 3 10 2 21 -3 24 -5 3 -12 -9 -16 -27z"/>
<path d="M4810 2720 c0 -5 7 -10 16 -10 8 0 12 5 9 10 -3 6 -10 10 -16 10 -5
0 -9 -4 -9 -10z"/>
<path d="M5748 2713 c6 -2 18 -2 25 0 6 3 1 5 -13 5 -14 0 -19 -2 -12 -5z"/>
<path d="M5680 2695 c0 -10 7 -15 18 -13 21 4 19 22 -2 26 -10 2 -16 -3 -16
-13z"/>
<path d="M5780 2683 c0 -12 5 -25 12 -29 8 -5 6 -10 -8 -15 -13 -5 -14 -8 -4
-8 31 -1 37 13 19 44 -17 27 -19 28 -19 8z"/>
<path d="M5751 2654 c0 -11 3 -14 6 -6 3 7 2 16 -1 19 -3 4 -6 -2 -5 -13z"/>
<path d="M4785 2590 c-3 -5 -1 -10 4 -10 6 0 11 5 11 10 0 6 -2 10 -4 10 -3 0
-8 -4 -11 -10z"/>
<path d="M9660 2570 c0 -5 5 -10 10 -10 6 0 10 5 10 10 0 6 -4 10 -10 10 -5 0
-10 -4 -10 -10z"/>
<path d="M4940 2531 c0 -6 5 -13 10 -16 6 -3 10 1 10 9 0 9 -4 16 -10 16 -5 0
-10 -4 -10 -9z"/>
<path d="M9630 2525 c0 -8 7 -15 15 -15 8 0 15 7 15 15 0 8 -7 15 -15 15 -8 0
-15 -7 -15 -15z"/>
<path d="M5015 2520 c3 -5 10 -10 16 -10 5 0 9 5 9 10 0 6 -7 10 -16 10 -8 0
-12 -4 -9 -10z"/>
<path d="M4760 2508 c0 -4 9 -9 20 -9 11 -1 25 -2 32 -3 6 -1 13 4 15 11 3 7
-9 11 -31 10 -20 -1 -36 -5 -36 -9z"/>
<path d="M4871 2506 c-8 -10 -9 -16 -1 -21 5 -3 13 1 16 10 9 22 -1 29 -15 11z"/>
<path d="M5200 2490 c0 -5 5 -10 11 -10 5 0 7 5 4 10 -3 6 -8 10 -11 10 -2 0
-4 -4 -4 -10z"/>
<path d="M4992 2479 c3 -8 15 -14 27 -13 16 0 21 -5 21 -23 0 -23 -23 -32 -35
-13 -15 24 -35 9 -35 -26 0 -21 -4 -33 -10 -29 -6 3 -7 17 -4 30 6 26 -6 38
-30 29 -11 -4 -13 -14 -10 -34 4 -15 1 -31 -5 -34 -6 -4 -11 -15 -11 -24 0
-14 1 -14 13 2 17 23 51 11 44 -15 -3 -11 -1 -17 4 -13 5 3 9 12 9 19 0 9 6
12 15 9 10 -4 13 -15 9 -33 l-5 -26 17 23 c14 18 26 22 75 22 33 0 59 4 59 10
0 6 -7 10 -15 10 -9 0 -12 6 -8 15 5 14 7 14 23 0 17 -15 60 -21 60 -7 0 15
-43 33 -91 39 -27 3 -50 9 -50 12 -1 3 -3 19 -5 35 -4 34 -2 33 -38 42 -22 5
-28 4 -24 -7z m64 -104 c18 -14 18 -14 -8 -15 -27 0 -43 12 -31 24 9 9 17 8
39 -9z"/>
<path d="M5880 2465 c0 -14 2 -25 4 -25 2 0 6 11 8 25 3 14 1 25 -3 25 -5 0
-9 -11 -9 -25z"/>
<path d="M4815 2470 c3 -5 13 -10 21 -10 8 0 14 5 14 10 0 6 -9 10 -21 10 -11
0 -17 -4 -14 -10z"/>
<path d="M4900 2470 c0 -6 10 -8 24 -4 13 3 27 1 31 -5 7 -12 25 -5 25 10 0 5
-18 9 -40 9 -22 0 -40 -5 -40 -10z"/>
<path d="M5355 2470 c4 -6 11 -8 16 -5 14 9 11 15 -7 15 -8 0 -12 -5 -9 -10z"/>
<path d="M4868 2425 c-4 -39 1 -44 18 -17 9 14 9 22 -1 35 -11 16 -13 14 -17
-18z"/>
<path d="M5085 2440 c4 -6 11 -8 16 -5 14 9 11 15 -7 15 -8 0 -12 -5 -9 -10z"/>
<path d="M5150 2443 c0 -5 12 -19 27 -33 14 -14 23 -18 20 -10 -4 8 -10 23
-13 33 -6 16 -34 25 -34 10z"/>
<path d="M4770 2419 c0 -17 3 -19 14 -10 11 9 15 9 18 0 2 -6 13 -10 23 -7 17
3 14 7 -14 21 -42 21 -41 21 -41 -4z"/>
<path d="M9556 2411 c-3 -4 6 -13 19 -19 22 -10 25 -9 25 8 0 20 -33 29 -44
11z"/>
<path d="M5338 2393 c7 -3 16 -2 19 1 4 3 -2 6 -13 5 -11 0 -14 -3 -6 -6z"/>
<path d="M8711 2383 c-1 -23 -39 -41 -59 -29 -6 3 -13 -1 -16 -10 -4 -10 -13
-13 -25 -9 -15 4 -23 -4 -41 -40 -12 -25 -26 -45 -30 -45 -5 0 -8 -22 -8 -50
1 -36 -4 -55 -18 -71 -18 -20 -18 -21 -1 -31 17 -9 17 -11 2 -35 -9 -14 -15
-36 -12 -50 2 -13 -2 -30 -10 -38 -10 -11 -12 -27 -8 -60 6 -37 4 -46 -10 -51
-13 -5 -15 -14 -10 -44 5 -32 3 -40 -17 -54 -21 -16 -22 -18 -6 -29 9 -7 16
-24 16 -37 -1 -14 2 -49 6 -78 4 -39 2 -59 -8 -74 -11 -15 -12 -27 -4 -49 9
-25 12 -27 25 -14 8 8 19 15 24 15 5 0 9 7 9 15 0 8 18 26 40 40 23 14 39 31
38 38 -2 7 7 26 20 44 12 17 22 36 22 41 0 6 5 14 10 17 7 4 9 -14 6 -52 l-4
-59 41 1 c40 0 42 2 43 30 0 17 6 55 12 85 12 53 15 123 13 275 -1 69 -6 155
-10 165 -8 19 -8 66 -1 85 11 28 1 73 -11 53 -6 -9 -9 -4 -9 15 0 16 4 26 10
22 6 -4 6 5 0 22 -5 15 -11 37 -13 48 -4 18 -5 18 -6 -2z"/>
<path d="M5215 2380 c-3 -5 -2 -10 4 -10 5 0 18 -3 28 -7 16 -6 16 -5 4 10
-15 19 -27 22 -36 7z"/>
<path d="M4780 2360 c0 -5 5 -10 10 -10 6 0 10 5 10 10 0 6 -4 10 -10 10 -5 0
-10 -4 -10 -10z"/>
<path d="M5256 2331 c-16 -18 -17 -23 -5 -37 11 -14 11 -18 2 -21 -7 -3 -13
-9 -13 -14 0 -6 8 -5 20 1 15 8 20 8 20 -2 0 -9 3 -9 12 0 10 10 10 15 -1 21
-8 5 -12 15 -9 22 3 8 2 22 -1 32 -6 17 -8 17 -25 -2z"/>
<path d="M5200 2331 c0 -5 -9 -11 -20 -13 -23 -3 -28 -21 -7 -26 16 -3 59 32
50 42 -9 9 -23 7 -23 -3z"/>
<path d="M5165 2260 c-3 -5 -1 -10 4 -10 6 0 11 5 11 10 0 6 -2 10 -4 10 -3 0
-8 -4 -11 -10z"/>
<path d="M5465 2260 c-3 -5 -2 -10 4 -10 5 0 13 5 16 10 3 6 2 10 -4 10 -5 0
-13 -4 -16 -10z"/>
<path d="M10927 2168 c-3 -12 -4 -25 -1 -29 4 -7 104 37 104 46 0 3 -22 5 -49
5 -42 0 -49 -3 -54 -22z"/>
<path d="M10880 2170 c0 -5 5 -10 10 -10 6 0 10 5 10 10 0 6 -4 10 -10 10 -5
0 -10 -4 -10 -10z"/>
<path d="M11060 2170 c0 -5 7 -10 16 -10 8 0 12 5 9 10 -3 6 -10 10 -16 10 -5
0 -9 -4 -9 -10z"/>
<path d="M10763 2155 c-8 -22 6 -33 17 -15 13 20 12 30 0 30 -6 0 -13 -7 -17
-15z"/>
<path d="M10820 2160 c0 -5 7 -10 15 -10 8 0 15 -4 15 -10 0 -5 7 -10 15 -10
24 0 18 27 -7 34 -32 8 -38 7 -38 -4z"/>
<path d="M10690 2133 c-14 -7 -29 -14 -35 -17 -6 -2 -6 -8 1 -15 8 -9 14 -8
24 4 7 8 23 15 36 15 13 0 24 4 24 9 0 16 -24 18 -50 4z"/>
<path d="M10800 2119 c0 -14 7 -19 25 -19 15 0 25 6 25 14 0 7 -11 16 -25 18
-19 4 -25 1 -25 -13z"/>
<path d="M3251 2114 c0 -11 3 -14 6 -6 3 7 2 16 -1 19 -3 4 -6 -2 -5 -13z"/>
<path d="M10610 2099 c0 -5 5 -7 10 -4 6 3 10 8 10 11 0 2 -4 4 -10 4 -5 0
-10 -5 -10 -11z"/>
<path d="M10756 2091 c-3 -5 1 -11 9 -15 9 -3 15 0 15 9 0 16 -16 20 -24 6z"/>
<path d="M10721 2064 c0 -11 3 -14 6 -6 3 7 2 16 -1 19 -3 4 -6 -2 -5 -13z"/>
<path d="M11192 1980 c-4 -153 -2 -1973 2 -1978 10 -9 11 158 6 1084 -3 550
-6 952 -8 894z"/>
<path d="M3090 2035 c0 -8 7 -15 15 -15 8 0 15 7 15 15 0 8 -7 15 -15 15 -8 0
-15 -7 -15 -15z"/>
<path d="M9326 2026 c-7 -27 21 -315 40 -409 17 -83 62 -343 68 -392 2 -16 20
-123 40 -238 20 -114 41 -262 47 -329 14 -164 18 -589 6 -609 -20 -33 -1 -49
55 -49 42 0 56 4 65 19 9 15 9 21 1 23 -7 3 -8 10 -4 17 4 7 9 36 9 65 2 43 9
63 42 112 51 75 116 135 184 169 29 15 55 33 58 42 3 8 -4 32 -16 53 -33 58
-28 111 13 153 18 19 43 38 55 42 12 3 19 11 16 16 -4 5 -2 9 3 9 5 0 9 18 8
40 0 22 -4 40 -8 40 -5 0 -8 18 -8 39 0 25 -5 41 -14 43 -11 2 -8 14 11 55 17
35 29 50 39 46 10 -4 14 3 14 26 0 24 10 40 47 73 92 85 110 103 122 125 6 13
17 20 25 17 10 -4 15 5 18 30 3 29 1 33 -12 26 -27 -15 -38 2 -24 35 7 17 13
24 14 18 0 -15 36 -18 45 -4 3 5 -4 13 -16 16 -11 4 -17 11 -13 15 11 10 141
40 204 47 39 4 52 13 98 61 28 31 52 60 52 65 0 4 14 21 30 37 17 16 30 27 30
24 0 -3 15 6 33 19 17 13 50 34 72 45 43 23 258 95 315 107 19 3 43 9 53 11
21 6 23 34 3 34 -8 0 -18 4 -21 10 -3 6 1 7 9 4 11 -4 19 3 26 21 13 35 14 35
-16 35 -77 0 -364 -119 -378 -157 -4 -9 -9 -13 -12 -11 -3 3 -46 -16 -95 -43
-50 -27 -94 -49 -100 -49 -5 0 -9 -4 -9 -9 0 -5 -16 -15 -36 -21 -44 -15 -70
-28 -111 -57 -36 -26 -83 -31 -83 -8 0 21 -48 43 -130 60 -39 8 -81 22 -94 30
-12 8 -25 12 -28 9 -6 -6 -68 23 -68 32 0 3 16 2 35 -2 29 -5 34 -4 29 9 -3 9
-13 13 -26 9 -14 -3 -19 -1 -14 6 4 7 25 15 46 18 47 8 77 34 38 34 -13 0 -50
-9 -81 -20 -56 -20 -84 -19 -71 1 3 5 0 17 -7 25 -16 20 -5 111 17 135 10 11
14 22 11 26 -4 3 -34 -20 -67 -53 -75 -73 -97 -86 -123 -70 -15 8 -21 8 -24
-1 -3 -7 -15 -13 -29 -13 -17 0 -22 4 -17 16 5 13 0 14 -32 8 -35 -6 -38 -5
-32 15 4 16 1 21 -13 21 -10 0 -23 7 -31 16 -12 14 -14 14 -25 0 -10 -14 -13
-14 -29 4 -10 11 -21 17 -25 15 -4 -3 -20 11 -36 30 -15 19 -34 35 -41 35 -7
0 -13 4 -13 10 0 5 -25 33 -54 62 -47 46 -56 50 -60 34z m1494 -326 c-19 -13
-30 -13 -30 0 0 6 10 10 23 10 18 0 19 -2 7 -10z m-1211 -1533 c12 -15 12 -17
-3 -11 -9 3 -16 13 -16 22 0 8 1 13 3 11 1 -2 9 -12 16 -22z"/>
<path d="M3134 2026 c-3 -8 -3 -20 1 -26 3 -5 -2 -13 -11 -17 -10 -4 -19 -2
-22 5 -2 7 -10 12 -19 12 -21 0 -11 -23 14 -35 26 -11 47 -51 33 -60 -6 -4
-10 3 -10 15 0 12 -4 18 -10 15 -17 -11 -11 -29 21 -64 17 -19 28 -40 24 -48
-4 -12 1 -14 20 -11 22 5 24 3 18 -20 -4 -17 -2 -23 6 -18 6 4 11 3 11 -3 0
-5 16 -15 35 -22 42 -15 49 -43 9 -33 -20 5 -25 3 -22 -7 3 -8 13 -14 24 -14
10 0 29 -11 41 -25 23 -25 27 -34 24 -57 -1 -7 2 -13 7 -13 14 0 37 -73 23
-78 -6 -2 -11 -10 -11 -18 0 -8 -4 -14 -10 -14 -5 0 -10 -4 -10 -10 0 -5 10
-9 22 -7 16 1 23 -4 25 -18 2 -11 11 -55 20 -97 13 -63 20 -78 35 -78 10 0 18
-4 18 -10 0 -5 -4 -10 -10 -10 -22 0 -7 -79 16 -83 5 -1 9 -26 9 -55 0 -46 2
-53 22 -58 35 -9 42 -54 7 -54 -8 0 -14 7 -14 15 0 8 -4 15 -10 15 -5 0 -10
-9 -10 -19 0 -29 -18 -35 -41 -15 -20 18 -21 18 -37 -3 -9 -11 -29 -23 -43
-26 -22 -6 -26 -12 -28 -54 -1 -34 -8 -51 -22 -61 -20 -14 -20 -14 6 -38 27
-25 22 -30 -28 -26 -14 2 -17 -3 -12 -17 4 -13 -5 -36 -28 -68 -31 -45 -33
-53 -34 -137 -1 -60 3 -98 12 -117 8 -15 22 -49 31 -74 15 -45 15 -48 -5 -66
-12 -11 -21 -31 -21 -45 0 -14 -7 -32 -15 -40 -8 -9 -15 -24 -15 -35 0 -10 -6
-19 -14 -19 -15 0 -28 -78 -13 -87 4 -2 5 -13 2 -23 -3 -10 -3 -30 1 -44 l6
-26 480 0 c407 0 482 2 494 15 8 8 22 11 31 8 13 -5 15 -2 10 11 -4 10 -7 23
-7 29 0 7 -4 6 -9 -2 -8 -12 -12 -12 -25 -2 -13 11 -19 11 -31 1 -17 -14 -50
-6 -40 10 3 5 1 10 -6 10 -10 0 -10 3 -1 12 20 20 14 38 -14 38 -21 0 -25 4
-21 20 3 11 1 23 -4 26 -5 3 -9 -4 -9 -16 0 -14 -4 -19 -12 -13 -7 4 -23 6
-35 4 -16 -2 -23 3 -24 16 0 10 -3 13 -6 6 -2 -7 -12 -13 -22 -13 -9 0 -22 -5
-29 -12 -7 -7 -12 -8 -12 -2 0 6 12 16 26 22 20 10 25 18 22 40 -2 15 -7 26
-13 24 -5 -2 -9 -14 -7 -27 4 -28 -9 -33 -27 -11 -8 10 -9 16 -1 21 16 10 12
28 -6 21 -9 -4 -13 -2 -8 5 4 8 -1 9 -16 4 -15 -5 -25 -2 -31 6 -13 20 -11 29
6 29 19 0 19 20 -2 45 -12 16 -14 16 -10 3 3 -10 2 -20 -3 -23 -6 -4 -10 1
-10 9 0 8 -14 36 -32 62 -25 38 -29 50 -20 64 9 14 8 19 -4 24 -8 3 -13 10 -9
16 3 5 1 17 -4 27 -11 20 -47 208 -56 293 -4 30 -11 71 -16 92 -5 20 -11 56
-13 80 -2 23 -13 81 -24 128 -12 47 -29 117 -37 155 -35 154 -162 561 -181
580 -8 7 -14 22 -14 33 0 11 -7 22 -15 26 -9 3 -15 19 -15 41 0 38 -19 50 -21
13 -1 -13 -1 -26 0 -30 2 -11 -17 -10 -24 1 -3 5 -1 12 5 16 13 8 13 35 1 35
-5 0 -12 -8 -14 -17 -4 -16 -5 -16 -6 -1 0 9 -11 18 -23 20 -17 2 -22 9 -21
25 2 14 -4 24 -18 28 -27 9 -33 1 -32 -40 1 -19 -3 -37 -8 -40 -10 -7 -24 41
-21 67 4 22 -16 34 -24 14z m273 -318 c-3 -8 -6 -5 -6 6 -1 11 2 17 5 13 3 -3
4 -12 1 -19z"/>
<path d="M3288 2023 c7 -3 16 -2 19 1 4 3 -2 6 -13 5 -11 0 -14 -3 -6 -6z"/>
<path d="M10015 1960 c-3 -5 -1 -10 4 -10 6 0 11 5 11 10 0 6 -2 10 -4 10 -3
0 -8 -4 -11 -10z"/>
<path d="M10274 1768 c-3 -4 11 -8 30 -8 20 0 36 2 36 4 0 8 -61 12 -66 4z"/>
<path d="M10225 1760 c-3 -5 -1 -10 4 -10 6 0 11 5 11 10 0 6 -2 10 -4 10 -3
0 -8 -4 -11 -10z"/>
<path d="M6735 1720 c-3 -6 1 -13 10 -16 19 -8 30 0 20 15 -8 14 -22 14 -30 1z"/>
<path d="M8430 1660 c0 -19 3 -21 12 -12 9 9 9 15 0 24 -9 9 -12 7 -12 -12z"/>
<path d="M8655 1560 c-3 -5 -1 -10 4 -10 6 0 11 5 11 10 0 6 -2 10 -4 10 -3 0
-8 -4 -11 -10z"/>
<path d="M6880 1479 c0 -14 30 -38 48 -39 9 0 8 7 -4 25 -17 26 -44 34 -44 14z"/>
<path d="M6950 1405 c7 -8 17 -15 22 -15 6 0 5 7 -2 15 -7 8 -17 15 -22 15 -6
0 -5 -7 2 -15z"/>
<path d="M7182 1288 c3 -7 15 -14 29 -15 14 -1 17 0 7 3 -10 3 -18 10 -18 15
0 5 -5 9 -11 9 -6 0 -9 -6 -7 -12z"/>
<path d="M7230 1238 c0 -5 11 -13 25 -18 14 -5 25 -15 25 -21 0 -7 7 -17 15
-23 9 -6 17 -24 19 -39 1 -15 6 -30 9 -34 4 -3 7 -39 7 -79 0 -40 4 -75 9 -78
14 -9 20 -59 10 -79 -6 -11 -6 -23 0 -35 9 -15 10 -15 11 4 0 12 7 27 15 34
12 10 14 40 11 171 -5 201 -9 209 -96 207 -33 -1 -60 -5 -60 -10z"/>
<path d="M8638 854 c0 -10 0 -26 1 -34 14 -88 16 -95 39 -98 15 -2 22 2 22 12
0 9 -6 16 -14 16 -11 0 -27 49 -30 97 -2 21 -16 27 -18 7z"/>
<path d="M7167 715 c-32 -19 -64 -35 -71 -35 -8 0 -19 -7 -26 -15 -7 -8 -18
-15 -26 -15 -7 0 -30 -7 -51 -16 -57 -25 -73 -32 -131 -54 -29 -11 -63 -26
-75 -34 -22 -15 -88 -38 -139 -50 l-27 -6 30 -53 c17 -28 34 -54 38 -57 16
-13 31 -53 26 -70 -4 -12 2 -27 14 -39 12 -12 21 -30 21 -42 0 -12 4 -17 11
-14 6 4 8 13 5 21 -3 8 -1 14 5 14 8 0 9 -16 4 -48 -5 -37 -4 -45 6 -35 10 10
15 9 26 -5 10 -12 12 -12 8 -2 -4 9 -1 8 8 -3 8 -10 13 -28 10 -40 -5 -22 -5
-22 10 -2 16 20 16 20 17 -2 0 -13 10 -34 21 -48 l22 -24 25 19 c13 11 48 41
76 67 29 27 65 59 81 73 17 14 50 52 75 85 48 64 55 74 84 126 10 19 22 36 25
39 3 3 17 25 30 50 29 53 30 129 3 169 -10 14 -23 38 -30 54 -15 35 -34 34
-105 -8z"/>
<path d="M8666 702 c-7 -12 13 -62 26 -62 13 0 9 34 -5 55 -9 11 -16 14 -21 7z"/>
<path d="M7315 690 c3 -5 8 -10 11 -10 2 0 4 5 4 10 0 6 -5 10 -11 10 -5 0 -7
-4 -4 -10z"/>
<path d="M8690 555 c0 -18 19 -40 26 -32 4 4 0 15 -9 24 -9 10 -17 13 -17 8z"/>
<path d="M8714 445 c-4 -8 -2 -21 4 -28 14 -17 33 -113 26 -131 -3 -8 2 -26
11 -40 10 -14 15 -33 12 -41 -4 -8 0 -36 8 -62 8 -27 15 -62 15 -80 0 -41 9
-63 25 -63 25 0 25 16 -1 111 -15 52 -28 108 -30 124 -2 17 -10 57 -18 90 -9
33 -18 77 -21 98 -6 38 -21 49 -31 22z"/>
<path d="M5590 361 c0 -15 -6 -21 -22 -21 -15 0 -19 -3 -12 -10 8 -8 19 -7 37
1 31 14 33 21 12 39 -13 10 -15 9 -15 -9z"/>
<path d="M6690 330 c0 -5 5 -10 11 -10 5 0 7 5 4 10 -3 6 -8 10 -11 10 -2 0
-4 -4 -4 -10z"/>
<path d="M5635 320 c-3 -5 -1 -10 4 -10 6 0 11 5 11 10 0 6 -2 10 -4 10 -3 0
-8 -4 -11 -10z"/>
<path d="M5464 229 c-3 -6 -1 -16 5 -22 8 -8 11 -5 11 11 0 24 -5 28 -16 11z"/>
<path d="M5514 185 c-4 -14 -4 -29 0 -32 3 -4 6 3 6 15 0 12 5 22 10 22 6 0
10 5 10 10 0 21 -20 9 -26 -15z"/>
<path d="M6400 196 c0 -9 5 -16 10 -16 6 0 10 4 10 9 0 6 -4 13 -10 16 -5 3
-10 -1 -10 -9z"/>
<path d="M6536 181 c-4 -7 -5 -15 -2 -18 9 -9 19 4 14 18 -4 11 -6 11 -12 0z"/>
<path d="M6651 167 c-12 -12 -15 -37 -3 -37 4 0 14 6 23 13 13 10 14 15 4 24
-9 8 -15 9 -24 0z"/>
<path d="M5580 114 c0 -8 5 -12 10 -9 6 3 10 10 10 16 0 5 -4 9 -10 9 -5 0
-10 -7 -10 -16z"/>
<path d="M4080 111 c0 -5 11 -8 25 -7 33 1 33 16 0 16 -14 0 -25 -4 -25 -9z"/>
<path d="M6340 113 c0 -4 5 -15 10 -23 8 -13 10 -13 10 2 0 9 -4 20 -10 23 -5
3 -10 3 -10 -2z"/>
<path d="M6745 110 c3 -5 11 -10 16 -10 6 0 7 5 4 10 -3 6 -11 10 -16 10 -6 0
-7 -4 -4 -10z"/>
<path d="M6579 90 c13 -11 30 -20 37 -20 11 0 10 -5 -4 -20 -12 -13 -25 -18
-35 -14 -12 4 -17 1 -17 -10 0 -19 21 -21 38 -4 9 9 13 7 18 -5 4 -12 18 -17
43 -17 20 0 32 4 26 8 -21 15 -44 71 -32 76 7 3 0 3 -15 0 -20 -5 -30 -2 -34
10 -3 9 -16 16 -28 16 -21 -1 -21 -1 3 -20z"/>
<path d="M5480 88 c0 -9 5 -20 10 -23 13 -8 13 5 0 25 -8 13 -10 13 -10 -2z"/>
<path d="M5540 91 c0 -5 5 -13 10 -16 6 -3 10 -2 10 4 0 5 -4 13 -10 16 -5 3
-10 2 -10 -4z"/>
<path d="M6480 90 c0 -5 5 -10 11 -10 5 0 7 5 4 10 -3 6 -8 10 -11 10 -2 0 -4
-4 -4 -10z"/>
<path d="M4230 51 c0 -21 5 -31 15 -31 8 0 15 7 15 16 0 8 -7 22 -15 30 -13
14 -15 12 -15 -15z"/>
<path d="M5650 70 c0 -5 5 -10 10 -10 6 0 10 5 10 10 0 6 -4 10 -10 10 -5 0
-10 -4 -10 -10z"/>
<path d="M10592 44 c10 -10 20 -15 24 -12 3 4 -5 12 -18 18 -22 12 -22 12 -6
-6z"/>
<path d="M4186 41 c-4 -6 -3 -19 3 -28 9 -17 10 -17 17 0 8 21 -10 45 -20 28z"/>
<path d="M4320 38 c0 -10 11 -15 30 -15 17 0 30 4 30 9 0 4 -6 8 -14 8 -8 0
-21 3 -30 6 -10 4 -16 1 -16 -8z"/>
<path d="M4418 42 c-20 -4 -25 -22 -5 -21 6 0 21 4 31 8 15 6 16 9 5 12 -8 3
-22 4 -31 1z"/>
<path d="M6052 39 c2 -7 10 -15 17 -17 8 -3 12 1 9 9 -2 7 -10 15 -17 17 -8 3
-12 -1 -9 -9z"/>
<path d="M6320 40 c0 -5 5 -10 10 -10 6 0 10 5 10 10 0 6 -4 10 -10 10 -5 0
-10 -4 -10 -10z"/>
<path d="M6386 42 c-3 -5 1 -15 9 -22 16 -14 20 -3 6 19 -5 8 -11 9 -15 3z"/>
<path d="M5600 31 c0 -6 5 -13 10 -16 6 -3 10 1 10 9 0 9 -4 16 -10 16 -5 0
-10 -4 -10 -9z"/>
<path d="M6275 30 c3 -5 8 -10 11 -10 2 0 4 5 4 10 0 6 -5 10 -11 10 -5 0 -7
-4 -4 -10z"/>
<path d="M6492 21 c2 -7 7 -12 11 -12 12 1 9 15 -3 20 -7 2 -11 -2 -8 -8z"/>
<path d="M6350 10 c0 -5 7 -10 16 -10 8 0 12 5 9 10 -3 6 -10 10 -16 10 -5 0
-9 -4 -9 -10z"/>
</g>
</svg>
