<svg xmlns="http://www.w3.org/2000/svg" width="32" height="39" viewBox="0 0 32 39" fill="none">
<path fill-rule="evenodd" clip-rule="evenodd" d="M8.77891 37.1811C12.9694 38.3504 19.4661 31.257 23.2897 21.3374C27.1133 11.4178 26.8158 2.42836 22.6254 1.25894C19.2988 0.330605 14.5188 4.6094 10.7766 11.3755C14.0108 5.73644 17.9886 2.2177 20.7567 2.99017C24.3724 3.99919 24.5549 11.948 21.1643 20.7443C17.7738 29.5406 12.094 35.8534 8.47825 34.8444C5.7101 34.0719 4.95422 29.2318 6.27338 23.0581C4.57905 30.3961 5.45225 36.2528 8.77891 37.1811Z" fill="url(#paint0_linear_310_1742)"/>
<path fill-rule="evenodd" clip-rule="evenodd" d="M19.0551 11.96H6.26963V15.1511H11.1137V27.7378L14.3281 21.3515V15.1511H17.4489L19.0551 11.96ZM1.33569 27.9045H4.56131V11.96H1.33569V27.9045Z" fill="url(#paint1_linear_310_1742)"/>
<defs>
<linearGradient id="paint0_linear_310_1742" x1="-8.27489" y1="4.38677" x2="20.8106" y2="47.1256" gradientUnits="userSpaceOnUse">
<stop stop-color="#00F0FF"/>
<stop offset="1" stop-color="#0038FF"/>
</linearGradient>
<linearGradient id="paint1_linear_310_1742" x1="-4.23069" y1="10.6032" x2="2.8064" y2="35.5215" gradientUnits="userSpaceOnUse">
<stop stop-color="#00F0FF"/>
<stop offset="1" stop-color="#0038FF"/>
</linearGradient>
</defs>
</svg>